<?xml version="1.0" encoding="utf-8"?>
<!-- Generator: Adobe Illustrator 25.0.0, SVG Export Plug-In . SVG Version: 6.00 Build 0)  -->
<svg version="1.1" id="Layer_1" xmlns="http://www.w3.org/2000/svg" xmlns:xlink="http://www.w3.org/1999/xlink" x="0px" y="0px"
	 viewBox="0 0 16 16" style="enable-background:new 0 0 16 16;" xml:space="preserve">
<style type="text/css">
	.st0{fill:#FFDF00;}
	.st1{fill:#353534;}
</style>
<rect x="0" y="-0.05" class="st0" width="15.99" height="16.08"/>
<path class="st1" d="M4.66,12.17c-0.14,0-0.25-0.04-0.33-0.13c-0.09-0.09-0.13-0.2-0.13-0.33V6.92c0-0.18-0.05-0.3-0.16-0.37
	C3.93,6.49,3.8,6.44,3.67,6.41C3.53,6.39,3.41,6.34,3.31,6.28C3.2,6.22,3.15,6.1,3.15,5.93c0-0.14,0.05-0.25,0.13-0.33
	c0.09-0.09,0.2-0.13,0.33-0.13c0.24,0,0.43,0.04,0.58,0.11V5.23c0-0.53,0.19-0.98,0.57-1.36C5.14,3.5,5.59,3.31,6.12,3.31h6.18
	c0.12,0,0.23,0.04,0.32,0.13c0.09,0.09,0.13,0.2,0.13,0.33c0,0.12-0.05,0.22-0.13,0.32c-0.09,0.1-0.2,0.15-0.32,0.15H6.12
	c-0.29,0-0.52,0.1-0.71,0.29c-0.19,0.19-0.28,0.43-0.28,0.7v0.24h0.58c0.13,0,0.24,0.04,0.33,0.13c0.09,0.09,0.13,0.2,0.13,0.33
	c0,0.14-0.04,0.25-0.13,0.33c-0.09,0.09-0.2,0.13-0.33,0.13H5.12v5.32c0,0.14-0.04,0.25-0.13,0.33C4.9,12.13,4.79,12.17,4.66,12.17z
	"/>
<path class="st1" d="M10.59,6.39H5.71c-0.13,0-0.24-0.04-0.33-0.13c-0.09-0.09-0.13-0.2-0.13-0.33c0-0.14,0.05-0.25,0.13-0.33
	c0.09-0.09,0.2-0.13,0.33-0.13h4.89c0.14,0,0.25,0.05,0.33,0.13c0.09,0.09,0.13,0.2,0.13,0.33s-0.04,0.24-0.13,0.33
	C10.84,6.35,10.73,6.39,10.59,6.39z M9.56,12.65H8.05c-0.35,0-0.68-0.12-1-0.36c-0.31-0.24-0.58-0.51-0.8-0.83
	C6.12,11.27,6.05,11,6.05,10.65V9.2c0-0.14,0.05-0.24,0.15-0.3c0.1-0.06,0.2-0.1,0.3-0.1c0.11,0,0.21,0.04,0.31,0.13l1.07,1.08
	c0.14,0.14,0.31,0.2,0.51,0.2c0.19,0,0.35-0.07,0.5-0.2C9.02,9.87,9.09,9.7,9.09,9.5V7.91c0-0.1-0.03-0.18-0.1-0.25
	c-0.07-0.06-0.15-0.1-0.24-0.1H8.07c-0.09,0-0.17,0.03-0.24,0.1c-0.07,0.06-0.1,0.15-0.1,0.25c0,0.09,0.04,0.17,0.11,0.24l0.58,0.59
	c0.09,0.09,0.14,0.2,0.14,0.32c0,0.12-0.04,0.22-0.13,0.32c-0.09,0.1-0.2,0.15-0.33,0.15c-0.12,0-0.22-0.05-0.32-0.14L7.17,8.81
	c-0.24-0.27-0.37-0.56-0.37-0.9c0-0.36,0.13-0.66,0.38-0.91c0.25-0.24,0.55-0.37,0.88-0.37h0.68c0.34,0,0.63,0.12,0.88,0.37
	c0.25,0.24,0.38,0.55,0.38,0.91V9.5c0,0.45-0.16,0.83-0.48,1.15c-0.32,0.32-0.7,0.49-1.15,0.49c-0.32,0-0.57-0.06-0.77-0.19
	c-0.19-0.13-0.41-0.31-0.65-0.54v0.25c0,0.17,0.07,0.34,0.22,0.5l0.36,0.37c0.14,0.14,0.31,0.22,0.51,0.22h1.51
	c0.12,0,0.23,0.05,0.32,0.13c0.09,0.09,0.13,0.2,0.13,0.32c0,0.14-0.05,0.25-0.13,0.33C9.78,12.61,9.68,12.65,9.56,12.65z"/>
</svg>
