<?xml version="1.0" encoding="utf-8"?>
<!-- Generator: Adobe Illustrator 25.2.1, SVG Export Plug-In . SVG Version: 6.00 Build 0)  -->
<svg version="1.1" id="Layer_1" xmlns="http://www.w3.org/2000/svg" xmlns:xlink="http://www.w3.org/1999/xlink" x="0px" y="0px"
	 viewBox="0 0 1000 700" style="enable-background:new 0 0 1000 700;" xml:space="preserve">
<style type="text/css">
	.st0{fill:#262625;}
</style>
<g>
	<path class="st0" d="M380.27,276.82c0-5.63,4.53-10.32,10.16-10.32c5.63,0,10.01,4.69,10.01,10.32c0,5.63-4.38,10.16-10.01,10.16
		C384.81,286.98,380.27,282.45,380.27,276.82z M398.25,302.15v76.61h-15.48v-76.61H398.25z"/>
	<path class="st0" d="M428.74,266.97v111.78h-15.48V266.97H428.74z"/>
	<path class="st0" d="M460.01,266.97v111.78h-15.48V266.97H460.01z"/>
	<path class="st0" d="M467.83,340.3c0-22.04,17.98-40.02,40.96-40.02c23.14,0,40.65,18.14,40.65,40.02
		c0,22.2-17.67,40.34-40.65,40.34C485.65,380.63,467.83,362.49,467.83,340.3z M533.96,340.45c0-14.07-10.94-25.64-25.17-25.64
		c-14.38,0-25.48,11.57-25.48,25.64c0,13.91,11.1,25.48,25.48,25.48C523.02,365.93,533.96,354.37,533.96,340.45z"/>
	<path class="st0" d="M552.81,378.75V333.1c0-18.6,10.63-32.52,30.64-32.52c4.85,0,9.85,0.94,13.76,2.81v15.32
		c-3.75-2.19-8.13-3.28-12.35-3.28c-10.32,0-16.57,7.03-16.57,18.29v45.03H552.81z"/>
	<path class="st0" d="M591.27,340.3c0-21.89,17.51-40.02,40.8-40.02c23.14,0,40.8,17.2,40.8,40.02v38.46h-14.7v-13.45
		c-5.78,9.38-15.95,15.32-28.45,15.32C607.53,380.63,591.27,362.49,591.27,340.3z M657.41,340.45c0-14.07-10.94-25.64-25.33-25.64
		c-14.23,0-25.33,11.57-25.33,25.64c0,13.91,11.1,25.48,25.33,25.48C646.46,365.93,657.41,354.37,657.41,340.45z"/>
	<path class="st0" d="M373.18,266.9v52.62c0,0.79-0.64,1.42-1.42,1.42H350c-2.04,0-3.7,1.65-3.7,3.69v52.83
		c0,0.54-0.3,1.03-0.79,1.27c-0.21,0.11-0.42,0.15-0.64,0.15c-0.32,0-0.6-0.09-0.86-0.29l-21.76-16.53
		c-0.35-0.27-0.56-0.7-0.56-1.13v-23.32c0-0.45,0.21-0.88,0.56-1.13l26.31-20.47v-33.28l22.33-16.97c0.26-0.2,0.54-0.29,0.86-0.29
		c0.23,0,0.44,0.05,0.64,0.15C372.88,265.87,373.18,266.35,373.18,266.9z"/>
	<path class="st0" d="M323.36,266.9v52.62c0,0.79-0.63,1.42-1.42,1.42h-21.77c-2.03,0-3.69,1.65-3.69,3.69v52.83
		c0,0.54-0.3,1.03-0.79,1.27c-0.21,0.11-0.42,0.15-0.64,0.15c-0.32,0-0.6-0.09-0.86-0.29l-21.76-16.53
		c-0.35-0.27-0.56-0.7-0.56-1.13v-23.32c0-0.45,0.2-0.88,0.56-1.13l26.31-20.47v-33.28l22.33-16.97c0.26-0.2,0.54-0.29,0.86-0.29
		c0.21,0,0.44,0.05,0.63,0.15C323.06,265.87,323.36,266.35,323.36,266.9z"/>
</g>
</svg>
