<?xml version="1.0" encoding="utf-8"?>
<!-- Generator: Adobe Illustrator 25.0.0, SVG Export Plug-In . SVG Version: 6.00 Build 0)  -->
<svg version="1.1" id="Layer_1" xmlns="http://www.w3.org/2000/svg" xmlns:xlink="http://www.w3.org/1999/xlink" x="0px" y="0px"
	 viewBox="0 0 1000 700" style="enable-background:new 0 0 1000 700;" xml:space="preserve">
<style type="text/css">
	.st0{fill:#232B2B;}
</style>
<g>
	<g>
		<path class="st0" d="M640.43,316.84c-0.11,0.49-0.21,0.98-0.34,1.47c-0.66,2.32-2.82,3.97-5.3,4c-2.16,0.03-4.31,0.06-6.47-0.02
			c-0.97-0.03-1.23,0.26-1.23,1.22c0.04,8.43,0.02,16.86,0.02,25.3c0,13.43,0,26.87,0,40.3c0,2.68-1.25,4.6-3.55,5.49
			c-2.32,0.9-4.78,0.32-6.5-1.55c-1.02-1.1-1.41-2.42-1.41-3.91c0.02-7.15,0.01-14.31,0.01-21.46c0-12.74,0-25.48,0-38.22
			c0-3.52-0.91-4.8-4.17-6.11c-2.54-1.03-5.18-1.11-7.86-1.04c-0.83,0.02-1.67,0-2.67,0c0,0.57,0,1.03,0,1.49
			c0,16.75-0.11,33.51,0.04,50.26c0.1,10.86-8.01,18.41-14.9,20.18c-7.96,2.05-14.91,0.08-20.74-5.63
			c-6.05-5.93-12.02-11.95-17.99-17.96c-4.32-4.35-6.54-9.6-6.41-15.76c0.08-3.64-0.08-7.33,0.41-10.92
			c1.16-8.52,9.47-16.01,18.08-16.62c1.27-0.09,2.55-0.14,3.83-0.14c8.19-0.01,16.37-0.01,24.56-0.01c0.44,0,0.87,0,1.4,0
			c0-1.62,0-3.16,0-4.8c-19.93,0-39.86,0-59.98,0c0,0.48,0,0.97,0,1.46c0,21.76,0,43.51,0,65.27c0,2.6-1.24,4.53-3.48,5.44
			c-2.29,0.93-4.8,0.37-6.52-1.46c-1-1.06-1.46-2.33-1.45-3.78c0.01-1.75,0-3.5,0-5.26c0-18,0-35.99,0-53.99c0-0.37,0-0.73,0-1.1
			c0.01-2.71-1.17-4.54-3.78-5.51c-2.4-0.9-4.84-1.31-7.39-1.18c-1.12,0.06-2.25,0.01-3.53,0.01c0,0.61,0,1.1,0,1.6
			c0,21.72,0,43.44,0,65.16c0,2.53-1.13,4.38-3.4,5.4c-2.24,1-4.44,0.74-6.35-0.89c-1.58-1.34-1.95-3.17-1.95-5.14
			c0-10.51-0.01-21.03,0.02-31.54c0-0.87-0.19-1.53-0.86-2.11c-0.8-0.69-1.51-1.49-2.26-2.23c-2.2-2.18-4.42-2.19-6.59-0.02
			c-2.9,2.89-5.81,5.76-8.68,8.68c-1.8,1.84-3.93,2.39-6.3,1.54c-2.41-0.86-3.73-3.05-3.75-5.74c-0.01-1.57-0.05-3.14-0.12-4.7
			c-0.13-2.72-2.42-6.19-6.33-5.88c-1.78,0.14-3.58,0.03-5.37,0.02c-1.12-0.01-2.05,0.36-2.83,1.19c-1.61,1.69-3.33,3.29-4.85,5.05
			c-0.57,0.66-0.98,1.67-1,2.53c-0.11,3.83-0.05,7.66-0.04,11.5c0,1.96,0.93,3.37,2.62,4.03c1.75,0.68,3.57,0.23,4.86-1.22
			c0.36-0.41,0.7-0.85,1.07-1.25c2.18-2.34,5.15-2.84,7.59-1.28c2.67,1.7,3.6,4.77,2.29,7.76c-0.33,0.76-0.78,1.51-1.33,2.12
			c-4.01,4.42-12.59,7.87-19.64,4.33c-5.7-2.87-8.99-7.43-9.07-13.98c-0.05-4.09,0.07-8.18-0.03-12.26
			c-0.1-3.93,1.03-7.33,3.82-10.13c2.14-2.15,4.24-4.33,6.47-6.38c2.72-2.5,6.03-3.63,9.72-3.63c2.81,0,5.64-0.11,8.43,0.1
			c5.37,0.42,9.14,3.51,12.09,7.77c0.49,0.71,0.91,1.48,1.47,2.39c5.2-5.58,11.37-7.03,18.54-4.43c0-6.12,0-12.15,0-18.34
			c-0.42,0-0.81,0-1.2,0c-20.72,0-41.44,0.03-62.16-0.03c-2.81-0.01-5.06,0.75-7,2.88c-2.36,2.59-4.95,4.96-7.43,7.44
			c-2.68,2.68-4.06,5.93-4.07,9.73c-0.01,8.8-0.01,17.59,0,26.39c0,3.8,1.38,7.04,4.06,9.73c6.5,6.51,13.02,13.01,19.53,19.51
			c2.71,2.71,5.99,4.08,9.83,4.11c3.51,0.03,5.9,2.4,5.89,5.82c-0.01,3.25-2.54,5.68-5.95,5.68c-7.16-0.02-13.23-2.74-18.28-7.7
			c-6.34-6.21-12.61-12.49-18.84-18.82c-5.11-5.19-7.84-11.4-7.78-18.78c0.06-7.96,0.22-15.92-0.04-23.87
			c-0.28-8.43,2.59-15.4,8.62-21.17c0.22-0.21,0.41-0.47,0.73-0.84c-27.57,0-54.95,0-82.43,0c-0.02,0.52-0.07,1.01-0.07,1.51
			c0,21.68-0.04,43.37,0.03,65.05c0.01,4.36-3.73,6.83-7.53,5.85c-2.34-0.61-4.03-2.76-4.14-5.32c-0.02-0.36,0-0.73,0-1.09
			c0-19.68,0-39.35,0-59.03c0-3.48-0.87-4.76-4.14-5.99c-0.92-0.35-1.89-0.55-2.83-0.84c-0.94-0.29-1.9-0.52-2.81-0.9
			c-2.78-1.18-3.86-3.26-3.3-6.22c0.52-2.77,2.69-4.65,5.53-4.68c1.27-0.01,2.56,0.06,3.82,0.25c1.21,0.18,2.4,0.57,3.73,0.89
			c0-1.09,0.02-2.17,0-3.25c-0.15-6.69,1.9-12.56,6.57-17.43c4-4.17,8.8-6.81,14.61-7.43c0.24-0.03,0.48-0.14,0.72-0.21
			c27.04,0,54.08,0,81.12,0c0.12,0.07,0.24,0.17,0.37,0.21c4.22,1.25,5.66,5.99,2.86,9.35c-1.29,1.55-2.92,2.12-4.93,2.12
			c-25.43-0.03-50.86-0.02-76.29-0.01c-0.95,0-1.9,0.03-2.84,0.15c-6.55,0.84-11.75,7.06-10.35,15.34c2.97,0,5.96,0,8.95,0
			c31.57,0,63.13,0,94.7,0c26.6,0,53.2,0,79.8,0c0.91,0,1.84-0.09,2.74,0.01c2.19,0.26,4.37,0.62,6.61,0.94
			c0-0.01,0.07-0.18,0.06-0.35c-0.23-2.71,2.24-5.52,4.77-5.84c3.27-0.41,5.7,1.23,6.59,4.55c0.17,0.65,0.49,0.69,0.99,0.68
			c2.67-0.01,5.33,0,8,0c22.87,0,45.75-0.02,68.62,0.03c2.39,0.01,4.78,0.42,7.16,0.69c0.54,0.06,1.07,0.32,1.72,0.52
			c0-1.66-0.04-3.16,0.01-4.65c0.09-2.92,2.73-5.41,5.69-5.41c3.15,0,5.64,2.34,5.74,5.41c0.03,0.8,0.04,1.61,0,2.41
			c-0.04,0.75,0.22,1.02,0.99,1.01c2.26-0.04,4.53-0.05,6.8,0c2.47,0.05,4.62,1.78,5.22,4.1c0.12,0.45,0.21,0.91,0.32,1.36
			C640.43,316.4,640.43,316.62,640.43,316.84z M589.3,338.89c-2.33,0-4.56,0-6.78,0c-6.98,0-13.96-0.02-20.93,0.01
			c-5.22,0.02-9.07,3.89-9.07,9.07c0,2.52,0,5.04,0,7.55c0,2.38,0.79,4.45,2.46,6.13c6.47,6.49,12.94,12.98,19.46,19.43
			c2.21,2.18,4.97,2.87,7.99,2.21c4.17-0.92,6.92-4.6,6.92-9.19c0.01-11.35,0-22.7,0-34.05
			C589.35,339.72,589.32,339.39,589.3,338.89z"/>
		<path class="st0" d="M348.06,372.92c-0.47,3.68,0.27,6.81,2.82,9.4c1.31,1.33,2.63,2.64,3.89,4.01c2.06,2.24,4.6,3.21,7.62,3.19
			c6.07-0.04,12.13-0.02,18.2-0.01c2.94,0.01,5.31,2.14,5.66,5.06c0.35,2.87-1.4,5.47-4.21,6.21c-0.52,0.14-1.08,0.16-1.62,0.16
			c-6.21,0.01-12.42-0.03-18.64,0.02c-4.32,0.03-8.19-1.27-11.7-3.7c-4.33-3.01-8-6.7-11.03-11.01c-2.08-2.97-2.53-6.4-2.54-9.91
			c-0.02-6.13-0.01-12.26,0-18.4c0-3.97,4.01-6.53,7.68-4.86c0.78,0.35,1.53,0.89,2.13,1.49c4.16,4.15,8.38,8.26,12.38,12.56
			c4.27,4.58,10.87,4.08,14.31-0.45c1.12-1.47,1.72-3.12,1.73-4.97c0.01-6.75,0.01-13.51,0-20.26c0-2.47-1.8-4.27-4.29-4.3
			c-2.78-0.03-5.55,0.01-8.33-0.02c-1.95-0.02-3.45,0.77-4.23,2.54c-0.81,1.83-0.32,3.48,1.08,4.89c2.4,2.41,4.79,4.82,7.16,7.25
			c2,2.05,2.39,4.65,1.08,6.91c-2.03,3.49-6.18,4.12-9.11,1.33c-2.12-2.01-4.21-4.06-6.24-6.15c-1.16-1.2-2.35-2.42-3.26-3.81
			c-6.26-9.53-0.76-22.42,10.49-24.32c3.1-0.53,6.34-0.27,9.51-0.29c1.56-0.01,3.16-0.01,4.69,0.28c7.55,1.41,12.84,7.6,13,15.43
			c0.14,7.08,0.12,14.16-0.04,21.24c-0.24,10.66-9.79,19.36-19.62,19.59c-5.91,0.14-10.75-1.82-14.95-5.79
			C350.52,375.14,349.34,374.1,348.06,372.92z"/>
		<path class="st0" d="M555.34,398.37c-1.57,0.06-2.94-0.65-4.09-1.79c-2.72-2.69-5.43-5.4-8.13-8.12
			c-1.72-1.73-2.35-3.81-1.49-6.11c0.83-2.21,2.56-3.51,4.92-3.83c1.61-0.22,3.08,0.26,4.23,1.37c3.03,2.95,6.06,5.91,8.97,8.97
			c1.63,1.71,1.9,3.81,0.93,5.99C559.7,397.06,557.71,398.36,555.34,398.37z"/>
	</g>
</g>
</svg>
