<?xml version="1.0" encoding="utf-8"?>
<!-- Generator: Adobe Illustrator 25.0.0, SVG Export Plug-In . SVG Version: 6.00 Build 0)  -->
<svg version="1.1" id="Layer_1" xmlns="http://www.w3.org/2000/svg" xmlns:xlink="http://www.w3.org/1999/xlink" x="0px" y="0px"
	 viewBox="0 0 512 512" style="enable-background:new 0 0 512 512;" xml:space="preserve">
<style type="text/css">
	.st0{fill:#010002;}
</style>
<g>
	<path class="st0" d="M165.94,50.3c31.16-4.02,62.61-5.11,94-5.04c43.29,0.32,87,2.48,129.1,13.29
		c18.93,5.13,37.68,11.68,54.52,21.91c22.74,13.25,41.79,33.14,52.89,57.12c11.23,23.53,15.04,49.88,15.17,75.76
		c-35.05,0.03-70.1-0.02-105.16,0.02c-1.36-12.8-2.83-25.71-7.04-37.94c-4.53-14.81-13.31-28.79-26.48-37.33
		c-15.9-10.4-35.29-13.13-53.85-14.55c-29.68-1.55-59.41-1.15-89.11-1.61c-20.73,0.31-41.73-0.16-62.07,4.52
		c-16.79,3.56-33.32,11.83-43.61,25.96c-13.26,17.41-17.19,39.69-19.41,60.94c-34.79-0.01-69.57,0.01-104.35-0.02
		c0.13-25.35,3.78-51.15,14.51-74.34c7.79-17.23,19.57-32.62,34.05-44.78c17.41-14.48,38.06-24.84,59.69-31.37
		C127.33,56.64,146.62,53.03,165.94,50.3z"/>
	<g>
		<path class="st0" d="M151,179.26c6.82-1.89,13.99-1.11,20.99-1.29c6.64,0.16,13.46-0.54,19.95,1.29c2.54,0.69,4.53,3.06,4.37,5.76
			c0.18,7.61,0,15.22,0.07,22.82c36.51,0,73.02,0.01,109.53,0c0.07-7.62-0.14-15.25,0.07-22.86c-0.12-2.65,1.76-4.97,4.25-5.69
			c6.74-1.91,13.83-1.14,20.74-1.32c6.66,0.15,13.48-0.52,20,1.2c2.62,0.6,4.82,2.96,4.68,5.75c0.18,9.33,0.01,18.67,0.07,28.01
			c9.76,10.77,18.93,22.04,27.96,33.42c26.44,34.79,53.48,69.25,76.72,106.32c2.14,3.86,5.17,7.71,4.88,12.37
			c-0.1,28.98,0.05,57.96-0.08,86.93c0.12,8.06-7.21,15.13-15.25,14.77c-132.63,0.01-265.26,0.04-397.88-0.01
			c-7.91,0.24-15.01-6.74-14.98-14.63c-0.16-29.01-0.02-58.02-0.11-87.03c-0.15-4.54,2.81-8.31,4.88-12.11
			c20.83-33.26,44.63-64.52,68.45-95.67c10.97-14.5,22.24-28.81,34.5-42.26c0.69-0.95,1.86-1.8,1.76-3.12
			c0.13-8.95-0.12-17.92,0.09-26.87C146.51,182.35,148.45,179.95,151,179.26z M187.45,246.49c-6.77,1.57-11.71,8.54-10.87,15.46
			c0.53,7.6,7.91,13.84,15.51,13.03c8.28-0.35,14.85-8.92,13.12-17.02C203.98,249.96,195.27,244.29,187.45,246.49z M247.39,246.44
			c-6.9,1.51-11.97,8.61-11.05,15.64c0.6,7.64,8.14,13.84,15.77,12.88c8.16-0.52,14.53-8.97,12.86-16.96
			C263.78,250.04,255.17,244.38,247.39,246.44z M306.45,246.62c-6.58,1.78-11.24,8.69-10.36,15.47c0.61,7.73,8.29,13.95,16,12.84
			c8.11-0.64,14.36-9.12,12.62-17.07C323.4,249.71,314.34,244.1,306.45,246.62z M186.47,296.55c-6.36,1.98-10.76,8.77-9.87,15.4
			c0.65,7.52,7.99,13.64,15.53,12.8c8.53-0.37,15.16-9.49,12.93-17.73C203.41,298.99,194.21,293.78,186.47,296.55z M246.35,296.51
			c-6.46,1.96-10.94,8.83-9.99,15.54c0.71,7.57,8.19,13.64,15.75,12.69c8.51-0.52,14.99-9.68,12.65-17.88
			C263.08,298.94,254,293.87,246.35,296.51z M307.17,296.22c-7.02,1.5-12.12,8.8-11.05,15.91c0.76,7.6,8.32,13.65,15.92,12.59
			c8.04-0.62,14.3-8.92,12.72-16.83C323.6,299.91,314.99,294.16,307.17,296.22z M187.18,346.15c-7.16,1.77-12.02,9.58-10.4,16.79
			c1.29,7.66,9.54,13.15,17.11,11.36c7.72-1.36,13.14-9.76,11.2-17.35C203.57,349.12,194.82,343.85,187.18,346.15z M245.45,346.64
			c-6.38,2.37-10.36,9.58-8.94,16.24c1.3,7.79,9.76,13.34,17.42,11.36c7.92-1.55,13.17-10.49,10.68-18.17
			C262.58,348.11,253.01,343.43,245.45,346.64z M305.37,346.58c-7.25,2.52-11.31,11.33-8.5,18.49c2.47,7.44,11.59,11.6,18.85,8.55
			c7.23-2.59,11.22-11.47,8.31-18.6C321.5,347.71,312.54,343.67,305.37,346.58z"/>
	</g>
	<path class="st0" d="M0,225.47c35.13-0.01,70.26,0.01,105.39-0.01c-0.2,7.58-0.88,15.51-4.72,22.23
		c-2.78,5.19-7.9,8.68-13.41,10.46c-11.71,3.75-24.17,2.48-36.27,2.79c-12.93-0.45-26.87,1.17-38.65-5.32
		C2.77,249.9,0.28,237.9,0,227.58V225.47z"/>
	<path class="st0" d="M406.1,225.47c35.3-0.01,70.6-0.01,105.9,0v2.1c-0.26,9.8-2.95,21.06-12.11,26.29
		c-11.28,6.04-24.53,4.84-36.88,5.18c-10.41-0.1-20.87,0.4-31.22-0.92c-7.49-0.98-15.25-3.83-19.95-10.04
		C407.13,241.57,406.33,233.26,406.1,225.47z"/>
</g>
</svg>
